# xmcd
#
# Track frame offsets:
#	150
#	11472
#	23474
#	34808
#	49095
#	61397
#	77259
#	90253
#	103518
#	116277
#	127123
#	138788
#	150985
#	162692
#
# Disc length: 2356 seconds
#
# Revision: 0
# Processed by: cddbd v1.4PL0 Copyright (c) Steve Scherf et al.
# Submitted via: dBpowerAMP V4.0
#
DISCID=9909320e
DTITLE=Trio Nordestino - Para Sempre
DYEAR=1900
DGENRE=Latin
TTITLE0=O Bicho Bom
TTITLE1=Como Tem Ze Na Paraiba
TTITLE2=Chupando Gelo
TTITLE3=Na Emenda
TTITLE4=Esquenta A Moreninha
TTITLE5=Corte O Bolo
TTITLE6=Chinelo De Rosinha
TTITLE7=Petroliuna- Juazeiro
TTITLE8=Conversa De motorista
TTITLE9=Pau-De-Arara E A Vovozinha
TTITLE10=Homem De Saia
TTITLE11=Chap Chap
TTITLE12=Cochilou Cachimbo Cai
TTITLE13=Forro Desarmado
EXTD=ron
EXTT0=
EXTT1=
EXTT2=
EXTT3=
EXTT4=
EXTT5=
EXTT6=
EXTT7=
EXTT8=
EXTT9=
EXTT10=
EXTT11=
EXTT12=
EXTT13=
PLAYORDER=
